<?xml version="1.0" standalone="no"?><!DOCTYPE svg PUBLIC "-//W3C//DTD SVG 1.1//EN" "http://www.w3.org/Graphics/SVG/1.1/DTD/svg11.dtd"><svg t="1636822241260" class="icon" viewBox="0 0 1024 1024" version="1.1" xmlns="http://www.w3.org/2000/svg" p-id="2462" xmlns:xlink="http://www.w3.org/1999/xlink" width="200" height="200"><defs><style type="text/css"></style></defs><path d="M748.2 768.2c0-0.1-0.1-0.1-0.1-0.1 0.1 0 0.1 0.1 0.1 0.1z" p-id="2463" fill="#2c2c2c"></path><path d="M926 396.7c-16.5-16.7-38.6-26.1-61.6-26.4-4.1-0.4-18.4-1.9-39.1-3.9-9.6-22-21.5-42.9-35.5-62.4 9.4-20.5 13.6-29.6 15.2-34l0.2 0.1c24.8-42.9 10-98.1-32.8-122.9l-77.5-45c-13.7-8-29.3-12.2-45.1-12.2-31.5 0-61.5 16.7-76.4 42.5-1.3 1.8-10 13.9-23.2 32.4-23.8-2.5-47.9-2.5-71.8 0.1-13.1-18.6-18.9-26.8-22.1-30.4l0.2-0.1c-16.1-27.7-46-45-78-45-15.6 0-31.1 4.1-44.8 11.9L256 146.1c-21 12.1-36.1 31.7-42.4 55.3-6.1 22.6-3.2 45.7 7.9 65.1 0.9 2.1 7.7 17.1 18 39.7-5.8 8-11.2 16.4-16.2 24.9-6.2 10.8-11.8 22-16.7 33.4-28.6 2.6-38.3 3.5-42 4-49.4 0.1-89.7 40.4-89.8 89.8l-0.2 89.6c0 24.3 9.4 47.1 26.7 64.4 16.5 16.6 38 25.7 60 25.7h0.1s18.8 1.9 48 4.6c8.7 18.9 19.3 37 31.4 53.9-11.9 25.8-16.9 36.6-18.7 41.7l-0.3-0.2c-11.9 20.5-15.2 45.3-9.1 68.2 6 23 21.3 42.9 41.8 54.8l77.5 45c13.7 7.9 29.3 12.1 45.1 12.2 31.5 0 61.5-16.7 76.4-42.5 1.5-2 12.2-16.9 28.2-39.3 20.9 2.1 41.8 2.3 62.4 0.5 16.2 23 23.1 32.7 26.5 36.7l-0.3 0.2c16.1 27.7 46 45 78.1 45 15.7 0 31.2-4.1 44.8-12l77.7-44.6c20.6-11.8 36-31.7 42.1-54.7 6.2-22.7 3.3-46.5-7.9-66.6-1.8-4-8.4-18.6-18-39.7 7.5-9.9 14.4-20.4 20.7-31.2 4.9-8.6 9.5-17.4 13.6-26.5 26.7-2.4 36.8-3.4 40.9-4v0.1c49.5-0.1 89.8-40.4 89.9-89.8l0.2-89.7c-0.1-23.4-9.6-46.6-26.4-63.4zM726.3 676.9c-7.7 9.2-9.4 22.2-4.4 33.2 13.8 30.2 23.7 52 25.8 56.9 0.3 0.7 0.5 1.1 0.5 1.2 0.4 0.9 0.9 1.8 1.4 2.7 3.6 6.2 4.6 13.7 2.7 20.6-1.9 7-6.5 13-12.8 16.6l-77.8 44.6c-4.1 2.4-8.8 3.6-13.5 3.6-10.2 0-19.1-5.6-25.1-15.9l-0.5-0.8c-2.1-3-17.3-24.3-38-53.8-6.8-9.7-18.4-14.7-30.2-13-27.4 4-55.1 3.7-82.5-0.7-11.9-1.9-23.6 3-30.6 12.8-12.7 17.8-23.2 32.6-30.3 42.5-5.9 8.3-9.5 13.3-10.4 14.6-3.4 5.9-9.5 10.4-16.7 12.3-7.1 1.9-14.7 1-20.6-2.4l-77.5-45c-6.3-3.7-10.8-9.5-12.7-16.6-2-7.4-0.7-14.8 4.2-23.5 0.1-0.2 11.1-24.4 28-60.9 5.1-10.9 3.5-23.5-4-32.9-17.4-21.6-31.4-45.6-41.5-71.3-4.4-11.1-14.4-18.6-26.3-19.7-19.4-1.8-35.8-3.4-47.8-4.5-13.7-1.3-19.8-1.9-21.4-2-15-0.1-27.2-12.4-27.2-27.4l0.2-89.6c0-15 12.3-27.2 27.2-27.2 1 0 2.2-0.1 2.7-0.1 0 0 0.5 0 1.5-0.1 5.1-0.5 29-2.8 62.3-5.8 12-1.1 22.4-9 26.6-20.3 6-16.1 12.4-29.9 19.7-42.4 6-10.3 13.2-20.8 22.9-32.9 7.4-9.3 8.9-21.8 3.9-32.6-7.1-15.6-13.2-28.9-17.8-38.9-6-13.1-8.7-19-9.4-20.5-7.5-13-2.9-29.8 10.1-37.3l77.7-44.6c13.4-7.7 30-2.4 38.7 12.2l0.4 0.7c1.6 2.3 15 21.1 34.1 48.1 6.9 9.8 19.1 14.9 31 12.8 29.2-5 60.5-5.1 90.6-0.2 11.9 1.9 23.6-3 30.6-12.8 9.9-14 18.2-25.6 24.4-34.2 7.3-10.2 10.5-14.7 11.4-16.1 3.4-5.9 9.5-10.4 16.6-12.3 7.1-1.9 14.7-1 20.7 2.4l77.6 45c6.2 3.6 10.8 9.6 12.7 16.6 2 7.4 0.7 14.8-4 23l-0.7 1.3v0.3c-2.1 4.7-11.3 24.7-24 52.2-5 10.8-3.4 23.7 4.1 32.9 19.5 24.1 34.6 50.6 44.8 78.8 4.1 11.3 14.5 19.4 26.5 20.5 30.7 2.9 52.7 5.1 57.7 5.6 1.1 0.1 1.7 0.1 1.2 0.1 10.7 0.9 17.5 3.4 22.3 8.2 5.1 5.1 8 12.1 8 19.3l-0.2 89.7c0 15.5-12.9 27.2-29.9 27.3 0 0-0.7 0-2 0.2-5.9 0.6-28.8 2.8-60.5 5.6-11.8 1.1-21.9 8.6-26.3 19.6-5.7 14.2-11.1 25.7-17.2 36.2-7.4 12.7-16.3 25.2-27 38.1z" p-id="2464" fill="#2c2c2c"></path><path d="M593.7 365.8c-23.7-13.8-50.8-21.1-78.2-21.1-55.5 0-107.2 29.8-135.1 77.7-43.2 74.4-17.7 170.1 56.7 213.3 23.7 13.8 50.8 21.1 78.2 21.1 55.5 0 107.2-29.8 135.1-77.7 20.7-35.5 26.5-78.7 15.9-118.4-10.5-39.8-37-74.4-72.6-94.9z m2.3 181.8c-16.7 28.6-47.7 46.4-80.8 46.5-16.4 0-32.5-4.4-46.7-12.6-44.5-25.8-59.7-83-33.9-127.5 16.7-28.6 47.7-46.4 80.8-46.5 16.4 0 32.5 4.4 46.7 12.6 21.3 12.3 37.1 32.9 43.3 56.7 6.5 24.1 3.2 49.2-9.4 70.8z" p-id="2465" fill="#2c2c2c"></path></svg>